# xmcd
#
# Track frame offsets:
#	150
#	31357
#	65948
#	104744
#	122039
#	152660
#	188927
#	211454
#	249338
#
# Disc length: 3905
#
# Revision: 2
# Processed by: cddbd v1.5.1PL0 Copyright (c) Steve Scherf et al.
# Submitted via: CDex 1.51
# Normalized: r1:TRMNUM
#
DISCID=850f3f09
DTITLE=Orchestre Septentrional - Live Milennium Nan
DYEAR=1900
DGENRE=Salsa
TTITLE0=Drogue La
TTITLE1=Tripotage
TTITLE2=Caridad
TTITLE3=Tens Moi La Main
TTITLE4=Fan'm
TTITLE5=Jeanine
TTITLE6=45 eme Printemps
TTITLE7=Tintin Ti Papa
TTITLE8=Septen Cheri
EXTD=
EXTT0=
EXTT1=
EXTT2=
EXTT3=
EXTT4=
EXTT5=
EXTT6=
EXTT7=
EXTT8=
PLAYORDER=
